<svg width="500" height="417" viewBox="0 0 500 417" fill="none" xmlns="http://www.w3.org/2000/svg">
<g clip-path="url(#clip0)">
<path d="M415.967 393.115L415.101 404.658L397.499 398.887L404.712 390.23L415.967 393.115Z" fill="#FEB8B8"/>
<path d="M480.029 389.364L479.162 400.618L469.351 402.061L463.58 396.578L470.217 385.901L480.029 389.364Z" fill="#FEB8B8"/>
<path d="M487.243 245.657C487.243 245.657 495.035 254.891 485.223 269.031C475.411 283.171 463.581 297.022 463.581 297.022L441.647 338.576C441.647 338.576 430.393 379.264 427.795 380.418C425.198 381.572 423.756 376.956 425.198 381.861C426.641 386.766 425.775 386.478 424.621 386.768C423.467 387.058 420.293 386.479 421.447 388.5C422.601 390.52 423.467 390.52 421.159 390.52C418.85 390.52 417.984 389.077 417.984 391.097C417.984 393.116 415.964 397.734 415.964 397.734C415.964 397.734 401.824 393.694 401.247 391.962C400.67 390.231 404.998 389.365 404.133 387.634C403.267 385.903 402.979 385.902 402.979 383.306C402.979 380.709 404.71 380.132 404.71 380.132C404.71 380.132 406.153 379.555 405.576 378.4C404.999 377.245 402.69 377.823 405.576 376.38C408.462 374.937 420.294 330.785 420.294 330.785C420.294 330.785 420.294 308.851 424.045 301.638C427.797 294.426 424.911 243.059 433.859 242.482C442.808 241.905 487.243 245.657 487.243 245.657Z" fill="#2F2E41"/>
<path d="M484.358 262.105L482.626 306.833C482.626 306.833 491.283 350.118 488.397 363.392C485.512 376.666 487.532 374.935 485.8 377.243C484.068 379.552 482.626 378.397 484.068 380.418C485.511 382.438 486.374 383.015 484.068 385.325C481.763 387.635 480.606 393.116 480.606 393.116L465.889 391.674C465.889 391.674 469.64 385.037 468.195 383.594C466.749 382.15 463 384.459 465.889 381.288C468.777 378.117 470.506 379.556 468.775 378.114C467.043 376.671 464.446 377.248 466.754 374.94C469.062 372.631 471.661 372.634 469.351 371.765C467.042 370.897 464.444 371.765 465.6 370.034C466.756 368.302 468.197 366.282 468.197 366.282L464.735 340.023C464.735 340.023 460.695 331.366 461.849 327.614C463.003 323.863 456.942 292.986 456.942 292.986L484.358 262.105Z" fill="#2F2E41"/>
<path d="M478.01 395.135C478.01 395.135 480.896 392.249 481.762 393.981C482.627 395.712 488.974 411.295 485.224 412.449C481.474 413.603 475.99 414.755 473.105 413.891C470.219 413.028 464.159 408.984 456.945 408.984C449.731 408.984 443.671 405.81 443.671 404.656C443.671 403.502 442.517 396.576 447.999 396.576C453.482 396.576 463.582 390.228 463.582 390.228C463.582 390.228 465.888 385.61 467.045 385.899C468.202 386.188 467.333 395.422 467.333 395.422C467.333 395.422 473.969 401.772 478.01 395.135Z" fill="#2F2E41"/>
<path d="M413.947 398.886C413.947 398.886 416.544 392.537 419.141 393.979C421.738 395.42 420.007 413.311 420.007 413.311C420.007 413.311 417.701 417.063 411.061 416.197C404.421 415.331 386.822 413.311 382.781 414.177C378.741 415.042 367.776 410.137 370.662 403.5C370.662 403.5 372.104 399.748 379.03 400.037C385.956 400.325 398.653 391.957 398.653 391.957C398.653 391.957 400.673 386.185 401.25 386.762C401.827 387.339 402.404 397.44 402.404 397.44C402.404 397.44 409.907 402.349 413.947 398.886Z" fill="#2F2E41"/>
<path d="M451.749 132.827C460.993 132.827 468.487 125.333 468.487 116.09C468.487 106.846 460.993 99.3527 451.749 99.3527C442.506 99.3527 435.012 106.846 435.012 116.09C435.012 125.333 442.506 132.827 451.749 132.827Z" fill="#FEB8B8"/>
<path d="M464.735 117.244C464.735 117.244 473.68 135.135 476.855 136.867C480.029 138.598 455.212 149.276 455.212 149.276C455.212 149.276 451.172 131.673 446.267 127.922C441.361 124.171 464.735 117.244 464.735 117.244Z" fill="#FEB8B8"/>
<path d="M439.053 263.547L437.899 274.513C437.899 274.513 425.49 270.185 429.53 262.105L439.053 263.547Z" fill="#FEB8B8"/>
<path d="M434.149 247.099C442.806 256.331 488.686 248.54 488.686 248.54L488.111 241.903L493.883 235.848L492.152 207.566C492.152 207.566 497.343 194.293 498.208 174.093C498.26 172.852 498.185 171.608 497.984 170.382C495.009 152.287 465.545 140.632 464.735 140.906C464.328 141.04 459.991 143.3 455.465 145.678C450.268 148.408 444.826 151.295 444.826 151.295C437.9 153.896 439.055 195.45 436.745 199.201C434.434 202.951 436.745 215.932 436.745 215.932L434.149 228.34C434.149 228.34 425.489 237.868 434.149 247.099Z" fill="#84C220"/>
<path opacity="0.1" d="M462.116 155.49C462.116 155.49 470.196 179.73 468.464 196.179C466.732 212.627 447.976 259.664 447.976 259.664L441.63 263.126V271.206L437.165 259.111L449.444 233.436C449.444 233.436 434.122 144.814 462.116 155.49Z" fill="black"/>
<path opacity="0.1" d="M454.538 148.217C462.91 143.601 475.608 155.726 488.881 168.707C493.648 173.367 496.405 172.899 497.986 170.381C495.011 152.286 465.546 140.632 464.737 140.905C464.329 141.039 459.992 143.3 455.466 145.677L454.538 148.217Z" fill="black"/>
<path d="M454.542 145.987L458.004 136.464C458.004 136.464 481.667 125.21 497.25 136.464L499.847 152.624C499.847 152.624 502.152 179.46 488.881 166.475C475.609 153.49 462.909 141.369 454.542 145.987Z" fill="#84C220"/>
<path d="M461.273 151.584C461.273 151.584 469.353 175.823 467.621 192.272C465.889 208.72 447.133 255.757 447.133 255.757L440.784 259.222V267.302L427.51 263.551L430.396 254.028C430.396 254.028 425.779 248.257 428.954 246.525C432.128 244.794 431.551 235.271 431.551 235.271C431.551 235.271 433.281 140.906 461.273 151.584Z" fill="#84C220"/>
<path d="M466.67 123.096C466.397 121.803 466.434 120.411 465.814 119.243C464.884 117.493 462.747 116.76 460.772 116.588C458.25 116.368 455.71 116.805 453.185 116.632C450.66 116.459 447.963 115.497 446.706 113.301C446.205 112.424 445.957 111.393 445.292 110.633C443.908 109.052 441.386 109.297 439.397 109.974C437.408 110.652 435.333 111.642 433.3 111.112C431.59 106.328 433.696 100.811 437.337 97.2687C440.978 93.7268 445.889 91.8207 450.766 90.4C457.199 88.5259 464.439 87.4186 470.353 90.5668C478.93 95.1315 481.956 107.214 481.165 116.219C480.866 119.624 480.377 123.478 477.625 125.776C473.592 129.145 467.888 128.856 466.67 123.096Z" fill="#2F2E41"/>
<g filter="url(#filter0_d)">
<path d="M346.656 0.302063H15.1549C6.87064 0.302063 0.154907 7.01781 0.154907 15.3021V216.824C0.154907 225.108 6.87065 231.824 15.1549 231.824H346.656C354.941 231.824 361.656 225.108 361.656 216.824V15.3021C361.656 7.01779 354.941 0.302063 346.656 0.302063Z" fill="#E6E6E6"/>
</g>
<path d="M352.501 29.3405H11.6741V218.127H352.501V29.3405Z" fill="white"/>
<path d="M361.501 0.0969238H0V15.4548H361.501V0.0969238Z" fill="#49A1C7"/>
<path d="M11.4133 10.7955C12.9855 10.7955 14.26 9.52096 14.26 7.94878C14.26 6.37661 12.9855 5.10211 11.4133 5.10211C9.84115 5.10211 8.56665 6.37661 8.56665 7.94878C8.56665 9.52096 9.84115 10.7955 11.4133 10.7955Z" fill="white"/>
<path d="M22.2176 10.7955C23.7898 10.7955 25.0643 9.52096 25.0643 7.94878C25.0643 6.37661 23.7898 5.10211 22.2176 5.10211C20.6455 5.10211 19.371 6.37661 19.371 7.94878C19.371 9.52096 20.6455 10.7955 22.2176 10.7955Z" fill="white"/>
<path d="M33.022 10.7955C34.5941 10.7955 35.8686 9.52096 35.8686 7.94878C35.8686 6.37661 34.5941 5.10211 33.022 5.10211C31.4498 5.10211 30.1753 6.37661 30.1753 7.94878C30.1753 9.52096 31.4498 10.7955 33.022 10.7955Z" fill="white"/>
<path d="M71.3028 55.8013L48.7582 78.0644L71.3028 100.327L76.3753 95.2544L59.3278 78.2045L76.5178 61.0145L71.3028 55.8013Z" fill="#49A1C7"/>
<path d="M89.7751 55.8013L112.319 78.0644L89.7751 100.327L84.7025 95.2544L101.751 78.2051L84.5601 61.0145L89.7751 55.8013Z" fill="#49A1C7"/>
<path d="M162.697 61.3882C160.853 61.3882 159.359 62.4488 159.359 63.7566C159.359 65.0643 160.853 66.125 162.697 66.125H320.085C321.929 66.125 323.424 65.0643 323.424 63.7566C323.424 62.4488 321.929 61.3882 320.085 61.3882H162.697Z" fill="#E6E6E6"/>
<path d="M318.521 191.146H53.7546C51.048 191.146 48.8546 189.584 48.8517 187.658V140.928C48.8546 139.002 51.048 137.44 53.7546 137.44H318.521C321.227 137.44 323.421 139.002 323.423 140.928V187.657C323.421 189.583 321.227 191.144 318.521 191.146ZM53.7546 138.834C52.1305 138.834 50.8145 139.771 50.8127 140.927V187.656C50.8127 188.812 52.1305 189.748 53.7546 189.749H318.521C320.145 189.749 321.461 188.812 321.462 187.656V140.928C321.462 139.772 320.145 138.836 318.521 138.835L53.7546 138.834Z" fill="#E6E6E6"/>
<path d="M81.0193 176.118C87.5614 176.118 92.8648 170.815 92.8648 164.273C92.8648 157.731 87.5614 152.427 81.0193 152.427C74.4772 152.427 69.1738 157.731 69.1738 164.273C69.1738 170.815 74.4772 176.118 81.0193 176.118Z" fill="#E6E6E6"/>
<path d="M114.429 154.799C113.8 154.798 113.198 155.047 112.753 155.491C112.308 155.934 112.058 156.536 112.057 157.165C112.056 157.793 112.305 158.395 112.749 158.84C113.192 159.285 113.794 159.535 114.422 159.536H226.085C226.713 159.536 227.315 159.286 227.76 158.842C228.204 158.398 228.453 157.796 228.453 157.168C228.453 156.539 228.204 155.937 227.76 155.493C227.315 155.049 226.713 154.799 226.085 154.799H114.429Z" fill="#49A1C7"/>
<path d="M114.429 169.01C114.118 169.01 113.81 169.071 113.522 169.189C113.235 169.308 112.973 169.482 112.753 169.702C112.308 170.145 112.058 170.747 112.057 171.375C112.056 172.004 112.305 172.606 112.749 173.051C113.192 173.496 113.794 173.746 114.422 173.747H162.474C163.102 173.748 163.705 173.499 164.149 173.055C164.594 172.612 164.844 172.01 164.845 171.382C164.846 170.753 164.597 170.151 164.154 169.706C163.71 169.261 163.108 169.011 162.48 169.01H114.429Z" fill="#49A1C7"/>
<path d="M161.548 75.5772C160.953 75.6252 160.397 75.8955 159.993 76.3344C159.588 76.7732 159.363 77.3485 159.363 77.9456C159.363 78.5427 159.588 79.1179 159.993 79.5568C160.397 79.9957 160.953 80.266 161.548 80.314H264.696C265.291 80.266 265.847 79.9957 266.252 79.5568C266.656 79.1179 266.881 78.5427 266.881 77.9456C266.881 77.3485 266.656 76.7732 266.252 76.3344C265.847 75.8955 265.291 75.6252 264.696 75.5772H161.548Z" fill="#E6E6E6"/>
<path d="M162.227 89.7662C160.643 89.7662 159.359 90.8269 159.359 92.1346C159.359 93.4424 160.643 94.503 162.227 94.503H297.436C299.02 94.503 300.304 93.4424 300.304 92.1346C300.304 90.8269 299.02 89.7662 297.436 89.7662H162.227Z" fill="#E6E6E6"/>
</g>
<defs>
<filter id="filter0_d" x="0.154907" y="0.302063" width="375.501" height="245.522" filterUnits="userSpaceOnUse" color-interpolation-filters="sRGB">
<feFlood flood-opacity="0" result="BackgroundImageFix"/>
<feColorMatrix in="SourceAlpha" type="matrix" values="0 0 0 0 0 0 0 0 0 0 0 0 0 0 0 0 0 0 127 0" result="hardAlpha"/>
<feOffset dx="8" dy="8"/>
<feGaussianBlur stdDeviation="3"/>
<feComposite in2="hardAlpha" operator="out"/>
<feColorMatrix type="matrix" values="0 0 0 0 0 0 0 0 0 0 0 0 0 0 0 0 0 0 0.25 0"/>
<feBlend mode="normal" in2="BackgroundImageFix" result="effect1_dropShadow"/>
<feBlend mode="normal" in="SourceGraphic" in2="effect1_dropShadow" result="shape"/>
</filter>
<clipPath id="clip0">
<rect width="500" height="416.23" fill="white" transform="translate(0 0.0969238)"/>
</clipPath>
</defs>
</svg>
