<svg width="300" height="181" viewBox="0 0 300 181" fill="none" xmlns="http://www.w3.org/2000/svg">
<g clip-path="url(#clip0)">
<path d="M173.159 145.341C172.458 145.341 171.774 145.548 171.191 145.938C170.609 146.327 170.155 146.88 169.887 147.527C169.619 148.174 169.549 148.886 169.686 149.573C169.822 150.259 170.16 150.89 170.655 151.386C171.15 151.881 171.781 152.218 172.468 152.355C173.155 152.491 173.867 152.421 174.514 152.153C175.161 151.885 175.714 151.431 176.103 150.849C176.492 150.267 176.7 149.582 176.7 148.882C176.7 147.943 176.327 147.042 175.662 146.378C174.998 145.714 174.098 145.341 173.159 145.341ZM173.159 151.061C172.728 151.061 172.306 150.933 171.948 150.694C171.59 150.454 171.31 150.114 171.145 149.716C170.98 149.318 170.937 148.879 171.021 148.457C171.105 148.034 171.313 147.646 171.618 147.341C171.923 147.036 172.311 146.829 172.734 146.745C173.156 146.66 173.594 146.704 173.993 146.869C174.391 147.033 174.731 147.313 174.971 147.671C175.21 148.03 175.338 148.451 175.338 148.882V148.882C175.338 149.46 175.108 150.014 174.7 150.423C174.291 150.831 173.737 151.061 173.159 151.061Z" fill="#E4E4E4"/>
<path d="M159.539 142.617H173.159V156.097C173.159 156.567 172.972 157.018 172.639 157.351C172.306 157.684 171.855 157.871 171.385 157.871H161.314C160.843 157.871 160.392 157.684 160.059 157.351C159.726 157.018 159.539 156.567 159.539 156.097V142.617Z" fill="#E4E4E4"/>
<path d="M27.5543 152.357L26.2883 158.617L49.831 166.48L51.6998 157.241L27.5543 152.357Z" fill="#FFB6B6"/>
<path d="M29.9211 151.174L27.4276 163.502L27.4275 163.503C27.0058 165.587 25.7738 167.417 24.0025 168.593C22.2311 169.768 20.0655 170.191 17.9819 169.77L17.7266 169.718L21.8093 149.534L29.9211 151.174Z" fill="#2F2E41"/>
<path d="M54.2331 66.1297C63.0616 66.1297 70.2186 58.9728 70.2186 50.1442C70.2186 41.3157 63.0616 34.1587 54.2331 34.1587C45.4045 34.1587 38.2476 41.3157 38.2476 50.1442C38.2476 58.9728 45.4045 66.1297 54.2331 66.1297Z" fill="#FEB8B8"/>
<path d="M69.1636 36.3539C66.7737 32.4729 63.0326 29.6132 58.6606 28.3252L56.6981 29.7573V27.8978C55.6481 27.7371 54.5854 27.6752 53.5239 27.7129L51.8307 29.2448V27.8401C49.3239 28.1517 46.9088 28.9792 44.7377 30.2706C42.5666 31.562 40.6867 33.2892 39.2164 35.3434C35.5395 40.644 34.9188 48.0184 38.5353 53.3616C39.5279 50.3107 40.7329 47.448 41.7259 44.3973C42.5061 44.5037 43.2969 44.5075 44.0782 44.4087L45.2859 41.5905L45.6234 44.2895C49.3671 43.9634 54.9199 43.2472 58.4689 42.5911L58.1237 40.5205L60.1885 42.241C61.2758 41.9908 61.9214 41.7636 61.8681 41.5901C64.5076 45.8455 67.738 48.5633 70.3772 52.8186C71.3797 46.8184 72.5336 41.8293 69.1636 36.3539Z" fill="#2F2E41"/>
<path d="M59.4341 154.751C82.1664 154.751 100.594 149.596 100.594 143.237C100.594 136.879 82.1664 131.724 59.4341 131.724C36.7019 131.724 18.2738 136.879 18.2738 143.237C18.2738 149.596 36.7019 154.751 59.4341 154.751Z" fill="#2F2E41"/>
<path d="M88.6133 91.2522C88.0636 87.9451 87.4966 84.5746 85.9596 81.5954C84.9494 79.644 83.3459 77.7845 81.1843 77.3986C80.7586 77.3607 80.3401 77.2638 79.9409 77.1108C79.3076 76.8057 70.7963 71.9469 69.4435 71.1007C68.2819 70.3742 66.4484 69.029 65.5238 69.029C64.5937 69.0086 61.0272 69.8386 47.107 68.7505C44.7655 69.6904 42.4981 70.8052 40.3239 72.0855C40.2791 72.056 25.8759 79.7904 25.3348 79.7701C24.3101 79.7269 23.3576 80.383 22.7701 81.2093C22.1828 82.0355 21.9072 83.0583 21.6188 84.0473C24.7647 91.0531 27.643 98.0679 30.7892 105.074C30.9365 105.338 31.0148 105.634 31.0167 105.937C30.9535 106.25 30.8196 106.545 30.6253 106.8C29.0825 109.278 29.1315 112.395 29.3001 115.308C29.4688 118.221 29.6773 121.298 28.3755 123.909C28.0215 124.625 27.561 125.282 27.2242 125.998C26.4356 127.622 26.1506 132.814 26.6112 134.559L84.3227 136.212C83.0819 132.801 88.6133 91.2522 88.6133 91.2522Z" fill="#20C2AF"/>
<path d="M16.6304 105.384C16.5153 106.217 16.5037 107.061 16.5959 107.897L17.4231 119.776C17.5007 120.896 17.5771 122.013 17.6822 123.13C17.8807 125.297 18.1772 127.447 18.5451 129.594C18.5534 129.899 18.6823 130.188 18.9036 130.398C19.1248 130.608 19.4203 130.722 19.7251 130.714C23.3663 131.484 27.1282 131.453 30.8442 131.244C36.5147 130.927 51.0219 130.328 51.9082 129.177C52.7945 128.026 52.278 126.163 51.1224 125.232C49.9667 124.301 30.8223 122.032 30.8223 122.032C31.0094 120.549 31.5737 119.153 32.109 117.746C33.0705 115.249 33.9685 112.671 33.9858 109.997C34.003 107.323 32.9956 104.511 30.8051 102.98C29.0032 101.722 26.6832 101.489 24.4874 101.54C22.8898 101.586 20.1295 101.203 18.6702 101.828C17.5155 102.337 16.8461 104.254 16.6304 105.384Z" fill="#FBBEBE"/>
<path d="M88.7157 132.237C89.6741 131.871 90.7306 132.003 91.758 132.142C95.0654 132.594 98.4215 133.057 101.487 134.378C102.926 134.995 104.296 135.817 105.269 137.029C106.132 138.119 106.636 139.455 107.114 140.77L108.22 143.799C108.69 144.936 109.014 146.129 109.184 147.348C109.529 150.971 107.051 154.388 103.934 156.271C100.817 158.153 97.1468 158.824 93.5717 159.526C89.9965 160.228 86.4074 161.005 82.847 161.829C81.1863 162.26 79.5014 162.591 77.8012 162.822C73.9903 163.253 70.0068 162.617 66.3857 163.878C64.9465 164.382 63.5332 165.13 62.0404 165.478C61.048 165.687 60.0448 165.84 59.0353 165.936L52.182 166.719C50.7884 166.905 49.3854 167.013 47.9797 167.041C44.9864 167.041 42.0417 166.332 39.135 165.623C38.8261 165.569 38.5321 165.451 38.2721 165.275C37.8117 164.913 37.7109 164.271 37.6446 163.689C37.351 161.116 37.0942 158.54 36.8742 155.961C36.8052 155.124 36.7534 154.217 37.211 153.512C37.7867 152.649 38.9094 152.378 39.9341 152.211C44.2792 151.5 48.6809 151.194 53.0825 151.298C54.7547 149.626 57.5123 149.617 59.7028 148.708C60.5087 148.337 61.2886 147.913 62.0373 147.438C65.9555 145.152 70.3341 143.769 74.8544 143.388C75.7397 143.361 76.6192 143.236 77.4767 143.014C79.1717 142.488 80.7178 141.054 82.459 141.405C82.6748 140.81 82.8245 140.012 83.3219 139.603C83.5685 139.393 83.8745 139.252 84.1019 139.028C84.5827 138.541 84.6258 137.776 84.5537 137.096C84.4816 136.417 84.3204 135.721 84.4961 135.058C84.5692 134.808 84.6767 134.568 84.8157 134.347C85.6761 132.858 86.98 132.093 88.7157 132.237Z" fill="#2F2E41"/>
<path d="M21.4525 84.2604C21.1721 84.5539 20.9547 84.9017 20.8136 85.2823C18.487 90.5258 17.1127 96.1418 16.7552 101.867C16.7615 102.146 16.6972 102.423 16.5682 102.67C16.441 102.835 16.2994 102.988 16.145 103.128C16.0105 103.287 15.9087 103.472 15.8454 103.671C15.7822 103.87 15.7587 104.079 15.7763 104.287C15.794 104.495 15.8524 104.697 15.9483 104.883C16.0441 105.068 16.1756 105.233 16.3351 105.367C16.3612 105.389 16.3881 105.41 16.4156 105.431C16.8905 104.537 18.0274 104.245 19.0379 104.167C23.8763 103.784 28.6025 106.035 33.4554 105.865C33.113 104.682 32.6206 103.546 32.3414 102.348C31.1065 97.0319 34.1864 91.2437 32.2982 86.123C31.921 85.0983 31.2908 84.0909 30.2978 83.6418C29.8867 83.476 29.4564 83.3621 29.017 83.3029C27.7908 83.0813 25.3497 82.1342 24.1642 82.5142C23.7265 82.6554 23.554 83.0668 23.1912 83.3155C22.6402 83.6674 21.9092 83.7969 21.4525 84.2604Z" fill="#20C2AF"/>
<path d="M88.6479 101.828C87.1887 101.203 84.4283 101.586 82.8307 101.54C80.6349 101.489 78.315 101.722 76.513 102.98C74.3225 104.511 73.3151 107.323 73.3323 109.997C73.3496 112.671 74.2476 115.249 75.2091 117.746C75.7444 119.153 76.3087 120.549 76.4958 122.031C76.4958 122.031 57.3514 124.301 56.1957 125.232C55.0401 126.163 54.5236 128.026 55.4099 129.177C56.2962 130.328 83.9519 131.484 87.593 130.714C87.8979 130.721 88.1933 130.608 88.4145 130.398C88.6358 130.188 88.7647 129.899 88.773 129.594C89.141 127.447 89.4374 125.297 89.6359 123.129C89.741 122.013 89.8174 120.896 89.8951 119.776L90.7222 107.897C90.8145 107.061 90.8029 106.217 90.6877 105.384C90.472 104.254 89.8026 102.337 88.6479 101.828Z" fill="#FBBEBE"/>
<path d="M84.1271 83.3155C83.7643 83.0668 83.5918 82.6554 83.1542 82.5142C81.9686 82.1342 79.5275 83.0813 78.3013 83.3029C77.8619 83.3621 77.4317 83.476 77.0205 83.6418C76.0276 84.0909 75.3973 85.0983 75.0201 86.123C73.1319 91.2437 76.2118 97.0319 74.977 102.348C74.6978 103.546 74.2053 104.682 73.8629 105.865C78.7158 106.035 83.442 103.784 88.2804 104.167C89.2909 104.245 90.4278 104.537 90.9027 105.431C90.9302 105.41 90.957 105.389 90.9832 105.367C91.1427 105.233 91.2741 105.068 91.37 104.883C91.4659 104.697 91.5243 104.495 91.542 104.287C91.5596 104.079 91.5361 103.87 91.4729 103.671C91.4096 103.472 91.3078 103.287 91.1732 103.128C91.0189 102.988 90.8773 102.835 90.7501 102.67C90.6211 102.423 90.5568 102.146 90.5631 101.867C90.2055 96.1418 88.8313 90.5258 86.5047 85.2823C86.3636 84.9017 86.1462 84.5539 85.8658 84.2604C85.4091 83.7969 84.6781 83.6674 84.1271 83.3155Z" fill="#20C2AF"/>
<path d="M92.2205 161.294L91.3792 167.625L66.5591 167.392L67.801 158.048L92.2205 161.294Z" fill="#FFB6B6"/>
<path d="M98.5719 160.495L95.8587 180.909L95.6005 180.874C93.4932 180.594 91.5835 179.488 90.2915 177.8C88.9994 176.112 88.4308 173.98 88.7107 171.873L88.7108 171.872L90.3679 159.404L98.5719 160.495Z" fill="#2F2E41"/>
<path d="M33.8284 135.441C33.8284 135.728 33.3766 135.441 33.3353 135.132C33.0188 132.804 31.1706 130.884 29.0177 129.951C26.8648 129.019 24.4123 128.97 22.0809 129.191C18.555 129.525 14.5971 130.875 13.3077 134.171C13.0026 134.941 10.1445 141.801 10.4234 143.344C11.1748 147.46 13.9897 150.981 17.4006 153.419C20.8115 155.857 24.7969 157.313 28.7724 158.627C39.2832 162.093 50.0672 164.669 61.0101 166.326C62.783 166.594 64.5735 166.842 66.2716 167.411C67.7912 167.921 69.2132 168.684 70.6986 169.282C74.1527 170.669 77.8687 171.165 81.5499 171.651C82.1773 171.732 82.8969 171.789 83.3604 171.363C83.9592 170.809 83.7611 169.841 83.5906 169.044C82.9658 166.012 83.4901 162.856 85.0616 160.19C85.6779 159.154 86.4792 158.091 86.3627 156.892C86.2246 155.494 84.8314 154.503 83.4439 154.279C82.0565 154.054 80.6463 154.385 79.2527 154.567C78.7751 154.676 78.2748 154.627 77.828 154.425C77.6209 154.286 77.4332 154.119 77.2696 153.93C76.3099 153.005 75.0816 152.407 73.7609 152.222C72.4403 152.037 71.0951 152.276 69.9183 152.903C69.403 153.191 68.6239 152.549 68.0877 152.307L62.0344 149.567C55.0804 146.421 48.0918 143.26 40.7347 141.269C40.1476 141.153 39.5897 140.921 39.0939 140.586C38.7284 140.298 38.4665 139.908 38.1296 139.587C37.3955 138.894 36.373 138.617 35.4932 138.125C34.6133 137.633 33.6268 136.428 33.8284 135.441Z" fill="#2F2E41"/>
<path d="M49.4986 131.281C51.8814 131.281 53.8131 129.35 53.8131 126.967C53.8131 124.584 51.8814 122.652 49.4986 122.652C47.1158 122.652 45.1841 124.584 45.1841 126.967C45.1841 129.35 47.1158 131.281 49.4986 131.281Z" fill="#FBBEBE"/>
<path d="M59.0523 131.281C61.4351 131.281 63.3668 129.35 63.3668 126.967C63.3668 124.584 61.4351 122.652 59.0523 122.652C56.6695 122.652 54.7378 124.584 54.7378 126.967C54.7378 129.35 56.6695 131.281 59.0523 131.281Z" fill="#FBBEBE"/>
<path d="M85.6845 136.688H26.4098C25.7177 136.688 25.0543 136.412 24.5649 135.923C24.0755 135.434 23.8003 134.77 23.7994 134.078V98.118C23.8003 97.426 24.0755 96.7625 24.5649 96.2732C25.0543 95.7838 25.7177 95.5086 26.4098 95.5078H85.6845C86.3765 95.5086 87.04 95.7838 87.5294 96.2732C88.0187 96.7625 88.294 97.426 88.2948 98.118V134.078C88.294 134.77 88.0187 135.434 87.5294 135.923C87.04 136.412 86.3765 136.688 85.6845 136.688Z" fill="#3F3D56"/>
<path d="M55.9035 117.825C56.8574 117.825 57.6306 117.052 57.6306 116.098C57.6306 115.144 56.8574 114.371 55.9035 114.371C54.9497 114.371 54.1765 115.144 54.1765 116.098C54.1765 117.052 54.9497 117.825 55.9035 117.825Z" fill="white"/>
</g>
<defs>
<clipPath id="clip0">
<rect width="300" height="180.909" fill="white"/>
</clipPath>
</defs>
</svg>
