<svg width="300" height="181" viewBox="0 0 300 181" fill="none" xmlns="http://www.w3.org/2000/svg">
<g clip-path="url(#clip0)">
<path d="M173.159 145.341C172.458 145.341 171.774 145.548 171.191 145.938C170.609 146.327 170.155 146.88 169.887 147.527C169.619 148.174 169.549 148.886 169.686 149.573C169.822 150.259 170.16 150.89 170.655 151.386C171.15 151.881 171.781 152.218 172.468 152.355C173.155 152.491 173.867 152.421 174.514 152.153C175.161 151.885 175.714 151.431 176.103 150.849C176.492 150.267 176.7 149.582 176.7 148.882C176.7 147.943 176.327 147.042 175.662 146.378C174.998 145.714 174.098 145.341 173.159 145.341ZM173.159 151.061C172.728 151.061 172.306 150.933 171.948 150.694C171.59 150.454 171.31 150.114 171.145 149.716C170.98 149.318 170.937 148.879 171.021 148.457C171.105 148.034 171.313 147.646 171.618 147.341C171.923 147.036 172.311 146.829 172.734 146.745C173.156 146.66 173.594 146.704 173.993 146.869C174.391 147.033 174.731 147.313 174.971 147.671C175.21 148.03 175.338 148.451 175.338 148.882V148.882C175.338 149.46 175.108 150.014 174.7 150.423C174.291 150.831 173.737 151.061 173.159 151.061Z" fill="#E4E4E4"/>
<path d="M159.54 142.617H173.159V156.097C173.159 156.567 172.972 157.018 172.639 157.351C172.307 157.684 171.855 157.871 171.385 157.871H161.314C160.843 157.871 160.392 157.684 160.059 157.351C159.726 157.018 159.54 156.567 159.54 156.097V142.617Z" fill="#E4E4E4"/>
<path d="M27.5543 152.357L26.2883 158.617L49.831 166.48L51.6998 157.241L27.5543 152.357Z" fill="#FFB6B6"/>
<path d="M29.9211 151.174L27.4276 163.502L27.4275 163.503C27.0058 165.587 25.7738 167.417 24.0025 168.593C22.2311 169.768 20.0655 170.191 17.9819 169.77L17.7266 169.718L21.8093 149.534L29.9211 151.174Z" fill="#2F2E41"/>
<path d="M54.2331 66.13C63.0616 66.13 70.2186 58.973 70.2186 50.1445C70.2186 41.3159 63.0616 34.1589 54.2331 34.1589C45.4045 34.1589 38.2476 41.3159 38.2476 50.1445C38.2476 58.973 45.4045 66.13 54.2331 66.13Z" fill="#FEB8B8"/>
<path d="M69.1636 36.3541C66.7737 32.4732 63.0326 29.6135 58.6606 28.3255L56.6981 29.7576V27.898C55.6481 27.7373 54.5854 27.6754 53.5239 27.7131L51.8307 29.2451V27.8404C49.3239 28.1519 46.9088 28.9794 44.7377 30.2708C42.5666 31.5622 40.6867 33.2895 39.2164 35.3436C35.5395 40.6443 34.9188 48.0187 38.5353 53.3619C39.5279 50.3109 40.7329 47.4482 41.7259 44.3976C42.5061 44.5039 43.2969 44.5078 44.0782 44.409L45.2859 41.5907L45.6234 44.2897C49.3671 43.9637 54.9199 43.2475 58.4689 42.5913L58.1237 40.5207L60.1885 42.2413C61.2758 41.991 61.9214 41.7639 61.8681 41.5904C64.5076 45.8457 67.738 48.5635 70.3772 52.8189C71.3797 46.8186 72.5336 41.8295 69.1636 36.3541Z" fill="#2F2E41"/>
<path d="M59.434 154.751C82.1662 154.751 100.594 149.596 100.594 143.237C100.594 136.879 82.1662 131.724 59.434 131.724C36.7018 131.724 18.2737 136.879 18.2737 143.237C18.2737 149.596 36.7018 154.751 59.434 154.751Z" fill="#2F2E41"/>
<path d="M88.6132 91.2522C88.0635 87.9451 87.4965 84.5746 85.9595 81.5954C84.9493 79.644 83.3458 77.7845 81.1842 77.3986C80.7584 77.3607 80.34 77.2638 79.9408 77.1108C79.3075 76.8057 70.7961 71.9469 69.4433 71.1007C68.2818 70.3742 66.4482 69.029 65.5237 69.029C64.5936 69.0086 61.0271 69.8386 47.1069 68.7505C44.7654 69.6904 42.4979 70.8052 40.3238 72.0855C40.2789 72.056 25.8758 79.7904 25.3347 79.7701C24.3099 79.7269 23.3574 80.383 22.77 81.2093C22.1826 82.0355 21.9071 83.0583 21.6187 84.0473C24.7645 91.0531 27.6429 98.0679 30.7891 105.074C30.9364 105.338 31.0146 105.634 31.0166 105.937C30.9534 106.25 30.8195 106.545 30.6252 106.8C29.0824 109.278 29.1314 112.395 29.2999 115.308C29.4686 118.221 29.6772 121.298 28.3754 123.909C28.0213 124.625 27.5609 125.282 27.2241 125.998C26.4355 127.622 26.1504 132.814 26.6111 134.559L84.3226 136.212C83.0817 132.801 88.6132 91.2522 88.6132 91.2522Z" fill="#5E20C2"/>
<path d="M16.6304 105.384C16.5153 106.217 16.5037 107.061 16.5959 107.897L17.4231 119.776C17.5007 120.896 17.5771 122.013 17.6822 123.13C17.8807 125.297 18.1772 127.447 18.5451 129.594C18.5534 129.899 18.6823 130.188 18.9036 130.398C19.1248 130.608 19.4203 130.722 19.7251 130.714C23.3663 131.484 27.1282 131.453 30.8442 131.244C36.5147 130.927 51.0219 130.328 51.9082 129.177C52.7945 128.026 52.278 126.163 51.1224 125.232C49.9667 124.301 30.8223 122.032 30.8223 122.032C31.0094 120.549 31.5737 119.153 32.109 117.746C33.0705 115.249 33.9685 112.671 33.9858 109.997C34.003 107.323 32.9956 104.511 30.8051 102.98C29.0032 101.722 26.6832 101.489 24.4874 101.54C22.8898 101.586 20.1295 101.203 18.6702 101.828C17.5155 102.337 16.8461 104.254 16.6304 105.384Z" fill="#FBBEBE"/>
<path d="M88.7157 132.237C89.6741 131.871 90.7306 132.003 91.758 132.142C95.0654 132.594 98.4215 133.057 101.487 134.378C102.926 134.995 104.296 135.817 105.269 137.029C106.132 138.119 106.636 139.455 107.114 140.77L108.22 143.799C108.69 144.936 109.014 146.129 109.184 147.348C109.529 150.971 107.051 154.388 103.934 156.271C100.817 158.153 97.1468 158.824 93.5717 159.526C89.9965 160.228 86.4074 161.005 82.847 161.829C81.1863 162.26 79.5014 162.591 77.8012 162.822C73.9903 163.253 70.0068 162.617 66.3857 163.878C64.9465 164.382 63.5332 165.13 62.0404 165.478C61.048 165.687 60.0448 165.84 59.0353 165.936L52.182 166.719C50.7884 166.905 49.3854 167.013 47.9797 167.041C44.9864 167.041 42.0417 166.332 39.135 165.623C38.8261 165.569 38.5321 165.451 38.2721 165.275C37.8117 164.913 37.7109 164.271 37.6446 163.689C37.351 161.116 37.0942 158.54 36.8742 155.961C36.8052 155.124 36.7534 154.217 37.211 153.512C37.7867 152.649 38.9094 152.378 39.9341 152.211C44.2792 151.5 48.6809 151.194 53.0825 151.298C54.7547 149.626 57.5123 149.617 59.7028 148.708C60.5087 148.337 61.2886 147.913 62.0373 147.438C65.9555 145.152 70.3341 143.769 74.8544 143.388C75.7397 143.361 76.6192 143.236 77.4767 143.014C79.1717 142.488 80.7178 141.054 82.459 141.405C82.6748 140.81 82.8245 140.012 83.3219 139.603C83.5685 139.393 83.8745 139.252 84.1019 139.028C84.5827 138.541 84.6258 137.776 84.5537 137.096C84.4816 136.417 84.3204 135.721 84.4961 135.058C84.5692 134.808 84.6767 134.568 84.8157 134.347C85.6761 132.858 86.98 132.093 88.7157 132.237Z" fill="#2F2E41"/>
<path d="M21.4524 84.2604C21.172 84.5539 20.9546 84.9017 20.8135 85.2823C18.4869 90.5258 17.1126 96.1418 16.7551 101.867C16.7614 102.146 16.697 102.423 16.568 102.67C16.4408 102.835 16.2992 102.988 16.1449 103.128C16.0104 103.287 15.9086 103.472 15.8453 103.671C15.782 103.87 15.7586 104.079 15.7762 104.287C15.7938 104.495 15.8523 104.697 15.9481 104.883C16.044 105.068 16.1754 105.233 16.3349 105.367C16.3611 105.389 16.388 105.41 16.4155 105.431C16.8904 104.537 18.0273 104.245 19.0378 104.167C23.8762 103.784 28.6024 106.035 33.4553 105.865C33.1129 104.682 32.6204 103.546 32.3412 102.348C31.1064 97.0319 34.1863 91.2437 32.2981 86.123C31.9209 85.0983 31.2907 84.0909 30.2977 83.6418C29.8865 83.476 29.4563 83.3621 29.0169 83.3029C27.7907 83.0813 25.3496 82.1342 24.164 82.5142C23.7264 82.6554 23.5538 83.0668 23.1911 83.3155C22.6401 83.6674 21.9091 83.7969 21.4524 84.2604Z" fill="#5E20C2"/>
<path d="M88.6478 101.828C87.1885 101.203 84.4282 101.586 82.8306 101.54C80.6348 101.489 78.3148 101.722 76.5129 102.98C74.3224 104.511 73.3149 107.323 73.3322 109.997C73.3495 112.671 74.2475 115.249 75.209 117.746C75.7443 119.153 76.3086 120.549 76.4957 122.031C76.4957 122.031 57.3513 124.301 56.1956 125.232C55.0399 126.163 54.5234 128.026 55.4098 129.177C56.2961 130.328 83.9517 131.484 87.5929 130.714C87.8977 130.721 88.1932 130.608 88.4144 130.398C88.6357 130.188 88.7646 129.899 88.7729 129.594C89.1409 127.447 89.4373 125.297 89.6358 123.129C89.7409 122.013 89.8173 120.896 89.895 119.776L90.7221 107.897C90.8143 107.061 90.8028 106.217 90.6876 105.384C90.4719 104.254 89.8025 102.337 88.6478 101.828Z" fill="#FBBEBE"/>
<path d="M84.127 83.3155C83.7642 83.0668 83.5916 82.6554 83.154 82.5142C81.9685 82.1342 79.5274 83.0813 78.3012 83.3029C77.8618 83.3621 77.4315 83.476 77.0204 83.6418C76.0274 84.0909 75.3972 85.0983 75.02 86.123C73.1318 91.2437 76.2117 97.0319 74.9769 102.348C74.6976 103.546 74.2052 104.682 73.8628 105.865C78.7157 106.035 83.4419 103.784 88.2803 104.167C89.2908 104.245 90.4276 104.537 90.9025 105.431C90.9301 105.41 90.9569 105.389 90.9831 105.367C91.1426 105.233 91.274 105.068 91.3699 104.883C91.4658 104.697 91.5242 104.495 91.5418 104.287C91.5595 104.079 91.536 103.87 91.4727 103.671C91.4095 103.472 91.3077 103.287 91.1731 103.128C91.0188 102.988 90.8772 102.835 90.75 102.67C90.621 102.423 90.5567 102.146 90.5629 101.867C90.2054 96.1418 88.8312 90.5258 86.5045 85.2823C86.3634 84.9017 86.146 84.5539 85.8657 84.2604C85.409 83.7969 84.678 83.6674 84.127 83.3155Z" fill="#5E20C2"/>
<path d="M92.2205 161.294L91.3792 167.625L66.5591 167.392L67.801 158.048L92.2205 161.294Z" fill="#FFB6B6"/>
<path d="M98.5719 160.495L95.8587 180.909L95.6005 180.874C93.4932 180.594 91.5835 179.488 90.2915 177.8C88.9994 176.112 88.4308 173.98 88.7107 171.873L88.7108 171.872L90.3679 159.404L98.5719 160.495Z" fill="#2F2E41"/>
<path d="M33.8284 135.441C33.8284 135.728 33.3766 135.441 33.3353 135.132C33.0188 132.804 31.1706 130.884 29.0177 129.951C26.8648 129.019 24.4123 128.97 22.0809 129.191C18.555 129.525 14.5971 130.875 13.3077 134.171C13.0026 134.941 10.1445 141.801 10.4234 143.344C11.1748 147.46 13.9897 150.981 17.4006 153.419C20.8115 155.857 24.7969 157.313 28.7724 158.627C39.2832 162.093 50.0672 164.669 61.0101 166.326C62.783 166.594 64.5735 166.842 66.2716 167.411C67.7912 167.921 69.2132 168.684 70.6986 169.282C74.1527 170.669 77.8687 171.165 81.5499 171.651C82.1773 171.732 82.8969 171.789 83.3604 171.363C83.9592 170.809 83.7611 169.841 83.5906 169.044C82.9658 166.012 83.4901 162.856 85.0616 160.19C85.6779 159.154 86.4792 158.091 86.3627 156.892C86.2246 155.494 84.8314 154.503 83.4439 154.279C82.0565 154.054 80.6463 154.385 79.2527 154.567C78.7751 154.676 78.2748 154.627 77.828 154.425C77.6209 154.286 77.4332 154.119 77.2696 153.93C76.3099 153.005 75.0816 152.407 73.7609 152.222C72.4403 152.037 71.0951 152.276 69.9183 152.903C69.403 153.191 68.6239 152.549 68.0877 152.307L62.0344 149.567C55.0804 146.421 48.0918 143.26 40.7347 141.269C40.1476 141.153 39.5897 140.921 39.0939 140.586C38.7284 140.298 38.4665 139.908 38.1296 139.587C37.3955 138.894 36.373 138.617 35.4932 138.125C34.6133 137.633 33.6268 136.428 33.8284 135.441Z" fill="#2F2E41"/>
<path d="M49.4986 131.281C51.8814 131.281 53.8131 129.349 53.8131 126.967C53.8131 124.584 51.8814 122.652 49.4986 122.652C47.1158 122.652 45.1841 124.584 45.1841 126.967C45.1841 129.349 47.1158 131.281 49.4986 131.281Z" fill="#FBBEBE"/>
<path d="M59.0523 131.281C61.4351 131.281 63.3668 129.349 63.3668 126.967C63.3668 124.584 61.4351 122.652 59.0523 122.652C56.6695 122.652 54.7378 124.584 54.7378 126.967C54.7378 129.349 56.6695 131.281 59.0523 131.281Z" fill="#FBBEBE"/>
<path d="M85.6846 136.688H26.4099C25.7179 136.688 25.0544 136.412 24.565 135.923C24.0757 135.434 23.8004 134.77 23.7996 134.078V98.118C23.8004 97.426 24.0757 96.7625 24.565 96.2732C25.0544 95.7838 25.7179 95.5086 26.4099 95.5078H85.6846C86.3766 95.5086 87.0401 95.7838 87.5295 96.2732C88.0188 96.7625 88.2941 97.426 88.295 98.118V134.078C88.2941 134.77 88.0188 135.434 87.5295 135.923C87.0401 136.412 86.3766 136.688 85.6846 136.688Z" fill="#3F3D56"/>
<path d="M55.9035 117.825C56.8574 117.825 57.6306 117.052 57.6306 116.098C57.6306 115.144 56.8574 114.371 55.9035 114.371C54.9497 114.371 54.1765 115.144 54.1765 116.098C54.1765 117.052 54.9497 117.825 55.9035 117.825Z" fill="white"/>
</g>
<defs>
<clipPath id="clip0">
<rect width="300" height="180.909" fill="white"/>
</clipPath>
</defs>
</svg>
