<svg width="500" height="215" viewBox="0 0 500 215" fill="none" xmlns="http://www.w3.org/2000/svg">
<g clip-path="url(#clip0)">
<path d="M109.747 119.479C109.751 118.822 109.62 118.171 109.362 117.566C109.104 116.962 108.723 116.417 108.245 115.966C107.767 115.515 107.2 115.168 106.582 114.945C105.963 114.723 105.305 114.631 104.649 114.674C103.994 114.717 103.354 114.896 102.77 115.197C102.186 115.499 101.67 115.918 101.255 116.428C100.84 116.938 100.535 117.528 100.358 118.161C100.182 118.794 100.138 119.457 100.229 120.108L86.489 138.1C85.9027 139.273 85.6754 140.592 85.8355 141.893C85.9957 143.195 86.5362 144.42 87.3894 145.415L88.4671 146.672L93.4123 145.683L99.0171 140.738L98.3576 135.133L105.281 124.254L105.272 124.246C106.484 124.169 107.621 123.633 108.452 122.747C109.283 121.862 109.746 120.694 109.747 119.479Z" fill="#FFB9B9"/>
<path d="M14.7334 207.442L12.4906 199.112L43.5514 186.499L46.8614 198.792L14.7334 207.442Z" fill="#FFB8B8"/>
<path d="M7.23116 211.74L0 184.883L0.339702 184.791C3.11217 184.045 6.06757 184.43 8.55585 185.863C11.0441 187.295 12.8615 189.658 13.6082 192.43L13.6084 192.431L18.0249 208.834L7.23116 211.74Z" fill="#2F2E41"/>
<path d="M57.5183 206.111L50.5422 201.038L66.7911 171.715L77.0875 179.202L57.5183 206.111Z" fill="#FFB8B8"/>
<path d="M54.3799 214.168L31.8851 197.809L32.092 197.524C33.7808 195.202 36.3227 193.646 39.1587 193.198C41.9948 192.75 44.8926 193.447 47.2148 195.136L47.2153 195.136L60.9543 205.128L54.3799 214.168Z" fill="#2F2E41"/>
<path d="M116.82 165.135L99.2646 148.081C97.7324 146.592 95.7144 145.707 93.5817 145.588C91.449 145.469 89.3449 146.124 87.6566 147.432L54.5093 184.256L57.4765 188.872L89.1263 167.442L110.556 195.466L130.996 185.246L116.82 165.135Z" fill="#2F2E41"/>
<path d="M109.237 168.761L96.3795 167.772L87.0679 165.515C86.5419 164.694 85.7779 164.054 84.878 163.68C83.9781 163.305 82.9853 163.215 82.0326 163.42C81.0799 163.626 80.2126 164.117 79.547 164.829C78.8814 165.541 78.4492 166.44 78.3082 167.404C78.1673 168.368 78.3243 169.353 78.7582 170.226C79.1922 171.098 79.8824 171.818 80.7364 172.287C81.5905 172.757 82.5676 172.954 83.537 172.853C84.5064 172.752 85.4217 172.357 86.1606 171.722L86.1592 171.728L91.764 174.036L115.831 182.278L118.798 179.97L109.237 168.761Z" fill="#FFB9B9"/>
<path d="M140.228 204.368L132.975 208.983H124.403L84.5108 194.147L26.1563 204.697L24.5079 192.169L77.9173 168.761L124.733 184.256L140.228 204.368Z" fill="#2F2E41"/>
<path d="M124.733 124.254C131.834 124.254 137.59 118.497 137.59 111.396C137.59 104.295 131.834 98.538 124.733 98.538C117.631 98.538 111.875 104.295 111.875 111.396C111.875 118.497 117.631 124.254 124.733 124.254Z" fill="#FFB9B9"/>
<path d="M158.001 162.731C158.001 170.491 156.778 178.202 154.378 185.582L153.415 188.542L148.8 209.642L143.854 210.961L140.228 206.345L132.975 201.07L127.7 192.499L123.176 184.962L121.765 182.608L116.82 157.882L98.0279 147.332L91.7639 146.343L93.0827 142.716L98.6873 135.133L104.292 134.474L105.94 133.155L107.259 133.814L114.529 136.615L138.098 126.657L141.547 127.221L153.415 137.111C156.449 145.312 158.002 153.987 158.001 162.731Z" fill="#84C220"/>
<path opacity="0.1" d="M154.404 159.86L141.876 168.102L123.177 184.962L121.765 182.608L117.809 162.827H118.798L129.019 144.035L154.404 159.86Z" fill="black"/>
<path d="M129.019 142.057L118.798 160.848L112.864 167.443L107.589 168.761L121.766 184.256L141.876 166.124L154.404 157.881L129.019 142.057Z" fill="#84C220"/>
<path d="M114.732 101.835L113.339 102.371C113.127 102.228 112.946 102.045 112.805 101.832C112.665 101.618 112.568 101.38 112.519 101.129C112.471 100.878 112.473 100.62 112.524 100.37C112.575 100.12 112.675 99.8822 112.819 99.6707C112.826 99.6596 112.834 99.6486 112.842 99.6377L110.267 99.5172C111.92 97.3162 114.021 95.4912 116.432 94.163C118.842 92.8347 121.507 92.0335 124.251 91.8124C126.994 91.5913 129.754 91.9552 132.346 92.8802C134.938 93.8052 137.305 95.2701 139.288 97.1781C139.406 96.7744 140.683 97.5598 141.205 98.3561C141.38 97.6992 142.578 100.875 143.002 103.119C143.198 102.372 143.952 103.578 143.292 104.736C143.71 104.675 143.899 105.746 143.575 106.343C144.033 106.128 143.956 107.407 143.459 108.261C144.113 108.203 143.404 121.666 133.595 120.685C132.912 117.547 133.104 117.742 132.3 113.707C131.926 113.31 131.516 112.948 131.107 112.587L128.894 110.634C126.32 108.362 123.979 105.558 120.551 104.709C118.195 104.126 116.705 103.994 117.989 101.339C116.829 101.823 115.746 102.543 114.575 102.993C114.591 102.622 114.755 102.207 114.732 101.835Z" fill="#2F2E41"/>
<path d="M131.161 115.187C132.436 115.187 133.469 114.154 133.469 112.879C133.469 111.605 132.436 110.572 131.161 110.572C129.887 110.572 128.854 111.605 128.854 112.879C128.854 114.154 129.887 115.187 131.161 115.187Z" fill="#FFB9B9"/>
<path d="M23.5402 58.3739L22.8359 68.949L33.4111 69.6533L34.1153 59.0781L23.5402 58.3739Z" fill="#E6E6E6"/>
<path d="M16.7171 63.9892L29.5583 64.8444L28.7031 77.6856L15.8619 76.8304L16.7171 63.9892ZM28.9628 65.3655L17.2383 64.5847L16.4574 76.3092L28.182 77.0901L28.9628 65.3655Z" fill="#84C220"/>
<path d="M83.3019 27.0155L72.9398 29.242L75.1663 39.604L85.5284 37.3775L83.3019 27.0155Z" fill="#E6E6E6"/>
<path d="M76.0289 21.9965L78.7325 34.579L66.15 37.2826L63.4464 24.7001L76.0289 21.9965ZM78.0679 34.1495L75.5994 22.6611L64.111 25.1296L66.5795 36.618L78.0679 34.1495Z" fill="#84C220"/>
<path d="M72.4138 76.7777L64.6786 84.023L71.924 91.7583L79.6592 84.5129L72.4138 76.7777Z" fill="#E6E6E6"/>
<path d="M80.2154 75.6938L70.8226 84.4918L62.0247 75.099L71.4174 66.301L80.2154 75.6938ZM70.8485 83.7008L79.4245 75.6679L71.3916 67.0919L62.8155 75.1248L70.8485 83.7008Z" fill="#84C220"/>
<path d="M472.434 0H158.852C157.719 -1.28812e-06 156.596 0.223247 155.549 0.656999C154.502 1.09075 153.55 1.72651 152.749 2.52798C151.947 3.32945 151.312 4.28093 150.878 5.3281C150.444 6.37527 150.221 7.49762 150.221 8.63107V183.353C150.221 184.486 150.444 185.609 150.878 186.656C151.312 187.703 151.947 188.655 152.749 189.456C153.55 190.257 154.502 190.893 155.549 191.327C156.596 191.761 157.719 191.984 158.852 191.984H472.434C474.723 191.984 476.918 191.075 478.537 189.456C480.155 187.837 481.065 185.642 481.065 183.353V8.63107C481.065 6.34197 480.155 4.14662 478.537 2.52798C476.918 0.909344 474.723 1.30074e-06 472.434 0Z" fill="#3F3D56"/>
<path d="M469.493 15.2535H161.793V188.828H469.493V15.2535Z" fill="#F0F0F0"/>
<path d="M315.38 10.5197C317.123 10.5197 318.536 9.10672 318.536 7.36377C318.536 5.62081 317.123 4.20787 315.38 4.20787C313.637 4.20787 312.224 5.62081 312.224 7.36377C312.224 9.10672 313.637 10.5197 315.38 10.5197Z" fill="#F0F0F0"/>
<path d="M381.496 188.828H161.793V15.2538L381.496 188.828Z" fill="#F2F2F2"/>
<path d="M209.938 175.839C226.273 175.839 239.516 162.597 239.516 146.262C239.516 129.927 226.273 116.685 209.938 116.685C193.603 116.685 180.361 129.927 180.361 146.262C180.361 162.597 193.603 175.839 209.938 175.839Z" fill="#20C2AF"/>
<path d="M216.523 168.492C209.246 168.492 202.133 166.335 196.083 162.292C190.032 158.249 185.317 152.503 182.532 145.781C179.748 139.058 179.019 131.66 180.439 124.524C181.858 117.387 185.362 110.831 190.508 105.686C195.653 100.541 202.208 97.0368 209.345 95.6172C216.482 94.1976 223.879 94.9262 230.602 97.7108C237.325 100.495 243.071 105.211 247.113 111.261C251.156 117.312 253.314 124.425 253.314 131.701C253.314 136.533 252.362 141.317 250.513 145.781C248.664 150.244 245.954 154.3 242.538 157.717C239.122 161.133 235.066 163.843 230.602 165.692C226.138 167.541 221.354 168.492 216.523 168.492ZM216.523 95.3912C209.341 95.3912 202.321 97.5207 196.35 101.511C190.379 105.5 185.725 111.171 182.977 117.806C180.228 124.441 179.509 131.742 180.91 138.785C182.311 145.829 185.77 152.298 190.848 157.376C195.926 162.454 202.395 165.913 209.439 167.314C216.482 168.715 223.783 167.996 230.418 165.247C237.053 162.499 242.724 157.845 246.713 151.874C250.703 145.903 252.833 138.883 252.833 131.701C252.833 126.933 251.894 122.211 250.069 117.806C248.244 113.401 245.57 109.398 242.198 106.026C238.826 102.655 234.823 99.9799 230.418 98.1552C226.013 96.3304 221.291 95.3912 216.523 95.3912L216.523 95.3912Z" fill="#3F3D56"/>
<path d="M398.261 105.431H369.519V111.436H398.261V105.431Z" fill="#3F3D56"/>
<path d="M425.454 72.8931H342.325V75.4671H425.454V72.8931Z" fill="#3F3D56"/>
<path d="M425.454 83.0058H342.325V85.5798H425.454V83.0058Z" fill="#3F3D56"/>
<path d="M425.454 93.1184H342.325V95.6924H425.454V93.1184Z" fill="#3F3D56"/>
<path d="M447.723 25.6412H435.711V37.653H447.723V25.6412Z" fill="#20C2AF"/>
<path d="M453.3 43.23H438.714V28.6441H453.3V43.23ZM439.348 42.5958H452.666V29.2783H439.348L439.348 42.5958Z" fill="#84C220"/>
<path d="M489.704 185.672H459.675V183.509C459.675 183.452 459.664 183.396 459.642 183.344C459.62 183.292 459.589 183.245 459.549 183.205C459.509 183.165 459.462 183.134 459.41 183.112C459.358 183.091 459.302 183.08 459.246 183.08H448.95C448.893 183.08 448.838 183.091 448.786 183.112C448.734 183.134 448.686 183.165 448.646 183.205C448.607 183.245 448.575 183.292 448.553 183.344C448.532 183.396 448.521 183.452 448.521 183.509V185.672H442.086V183.509C442.086 183.452 442.075 183.396 442.053 183.344C442.032 183.292 442 183.245 441.96 183.205C441.92 183.165 441.873 183.134 441.821 183.112C441.769 183.091 441.713 183.08 441.657 183.08H431.361C431.305 183.08 431.249 183.091 431.197 183.112C431.145 183.134 431.098 183.165 431.058 183.205C431.018 183.245 430.986 183.292 430.965 183.344C430.943 183.396 430.932 183.452 430.932 183.509V185.672H424.497V183.509C424.497 183.452 424.486 183.396 424.465 183.344C424.443 183.292 424.411 183.245 424.372 183.205C424.332 183.165 424.284 183.134 424.232 183.112C424.18 183.091 424.125 183.08 424.068 183.08H413.772C413.716 183.08 413.66 183.091 413.608 183.112C413.556 183.134 413.509 183.165 413.469 183.205C413.429 183.245 413.398 183.292 413.376 183.344C413.354 183.396 413.343 183.452 413.343 183.509V185.672H406.908V183.509C406.908 183.452 406.897 183.396 406.876 183.344C406.854 183.292 406.823 183.245 406.783 183.205C406.743 183.165 406.696 183.134 406.644 183.112C406.592 183.091 406.536 183.08 406.479 183.08H396.184C396.127 183.08 396.071 183.091 396.019 183.112C395.967 183.134 395.92 183.165 395.88 183.205C395.84 183.245 395.809 183.292 395.787 183.344C395.766 183.396 395.755 183.452 395.755 183.509V185.672H389.32V183.509C389.32 183.452 389.309 183.396 389.287 183.344C389.265 183.292 389.234 183.245 389.194 183.205C389.154 183.165 389.107 183.134 389.055 183.112C389.003 183.091 388.947 183.08 388.891 183.08H378.595C378.539 183.08 378.483 183.091 378.431 183.112C378.379 183.134 378.331 183.165 378.292 183.205C378.252 183.245 378.22 183.292 378.199 183.344C378.177 183.396 378.166 183.452 378.166 183.509V185.672H371.731V183.509C371.731 183.452 371.72 183.396 371.698 183.344C371.677 183.292 371.645 183.245 371.605 183.205C371.565 183.165 371.518 183.134 371.466 183.112C371.414 183.091 371.358 183.08 371.302 183.08H361.006C360.95 183.08 360.894 183.091 360.842 183.112C360.79 183.134 360.743 183.165 360.703 183.205C360.663 183.245 360.631 183.292 360.61 183.344C360.588 183.396 360.577 183.452 360.577 183.509V185.672H354.142V183.509C354.142 183.452 354.131 183.396 354.11 183.344C354.088 183.292 354.056 183.245 354.017 183.205C353.977 183.165 353.929 183.134 353.877 183.112C353.825 183.091 353.77 183.08 353.713 183.08H273.062C273.006 183.08 272.95 183.091 272.898 183.112C272.846 183.134 272.799 183.165 272.759 183.205C272.719 183.245 272.688 183.292 272.666 183.344C272.645 183.396 272.633 183.452 272.633 183.509V185.672H266.199V183.509C266.199 183.452 266.187 183.396 266.166 183.344C266.144 183.292 266.113 183.245 266.073 183.205C266.033 183.165 265.986 183.134 265.934 183.112C265.882 183.091 265.826 183.08 265.77 183.08H255.474C255.417 183.08 255.362 183.091 255.31 183.112C255.257 183.134 255.21 183.165 255.17 183.205C255.131 183.245 255.099 183.292 255.077 183.344C255.056 183.396 255.045 183.452 255.045 183.509V185.672H248.61V183.509C248.61 183.452 248.599 183.396 248.577 183.344C248.556 183.292 248.524 183.245 248.484 183.205C248.444 183.165 248.397 183.134 248.345 183.112C248.293 183.091 248.237 183.08 248.181 183.08H237.885C237.829 183.08 237.773 183.091 237.721 183.112C237.669 183.134 237.621 183.165 237.582 183.205C237.542 183.245 237.51 183.292 237.489 183.344C237.467 183.396 237.456 183.452 237.456 183.509V185.672H231.021V183.509C231.021 183.452 231.01 183.396 230.988 183.344C230.967 183.292 230.935 183.245 230.895 183.205C230.856 183.165 230.808 183.134 230.756 183.112C230.704 183.091 230.648 183.08 230.592 183.08H220.296C220.24 183.08 220.184 183.091 220.132 183.112C220.08 183.134 220.033 183.165 219.993 183.205C219.953 183.245 219.921 183.292 219.9 183.344C219.878 183.396 219.867 183.452 219.867 183.509V185.672H213.432V183.509C213.432 183.452 213.421 183.396 213.4 183.344C213.378 183.292 213.346 183.245 213.307 183.205C213.267 183.165 213.22 183.134 213.167 183.112C213.115 183.091 213.06 183.08 213.003 183.08H202.707C202.651 183.08 202.595 183.091 202.543 183.112C202.491 183.134 202.444 183.165 202.404 183.205C202.364 183.245 202.333 183.292 202.311 183.344C202.29 183.396 202.278 183.452 202.278 183.509V185.672H195.844V183.509C195.844 183.452 195.832 183.396 195.811 183.344C195.789 183.292 195.758 183.245 195.718 183.205C195.678 183.165 195.631 183.134 195.579 183.112C195.527 183.091 195.471 183.08 195.415 183.08H185.119C185.005 183.08 184.896 183.125 184.815 183.205C184.735 183.286 184.69 183.395 184.69 183.509V185.672H178.255V183.509C178.255 183.452 178.244 183.396 178.222 183.344C178.201 183.292 178.169 183.245 178.129 183.205C178.089 183.165 178.042 183.134 177.99 183.112C177.938 183.091 177.882 183.08 177.826 183.08H167.53C167.416 183.08 167.307 183.125 167.227 183.205C167.146 183.286 167.101 183.395 167.101 183.509V185.672H147.367C144.637 185.672 142.018 186.757 140.087 188.688C138.156 190.619 137.071 193.237 137.071 195.968V200.624C137.071 203.354 138.156 205.973 140.087 207.904C142.018 209.835 144.637 210.919 147.367 210.919H489.704C492.435 210.919 495.054 209.835 496.984 207.904C498.915 205.973 500 203.354 500 200.624V195.968C500 194.616 499.734 193.277 499.216 192.028C498.699 190.779 497.94 189.644 496.984 188.688C496.028 187.732 494.893 186.973 493.644 186.456C492.395 185.938 491.056 185.672 489.704 185.672Z" fill="#3F3D56"/>
</g>
<defs>
<clipPath id="clip0">
<rect width="500" height="214.168" fill="white"/>
</clipPath>
</defs>
</svg>
