<svg width="41" height="41" viewBox="0 0 41 41" fill="none" xmlns="http://www.w3.org/2000/svg">
<path d="M11.917 0.125C5.42285 0.125 0.125 5.42285 0.125 11.917V28.9702C0.125 35.4521 5.42285 40.75 11.917 40.75H28.9702C35.4521 40.75 40.75 35.4522 40.75 28.958V11.917C40.75 5.42285 35.4522 0.125 28.958 0.125H11.917ZM11.917 3.25H28.958C33.7676 3.25 37.625 7.10742 37.625 11.917V28.958C37.625 33.7676 33.7676 37.625 28.9702 37.625H11.917C7.10742 37.625 3.25 33.7676 3.25 28.9702V11.917C3.25 7.10742 7.10742 3.25 11.917 3.25ZM32.9375 6.375C32.0708 6.375 31.375 7.0708 31.375 7.9375C31.375 8.8042 32.0708 9.5 32.9375 9.5C33.8042 9.5 34.5 8.8042 34.5 7.9375C34.5 7.0708 33.8042 6.375 32.9375 6.375ZM20.4375 9.5C14.4194 9.5 9.5 14.4194 9.5 20.4375C9.5 26.4556 14.4194 31.375 20.4375 31.375C26.4556 31.375 31.375 26.4556 31.375 20.4375C31.375 14.4194 26.4556 9.5 20.4375 9.5ZM20.4375 12.625C24.771 12.625 28.25 16.104 28.25 20.4375C28.25 24.771 24.771 28.25 20.4375 28.25C16.104 28.25 12.625 24.771 12.625 20.4375C12.625 16.104 16.104 12.625 20.4375 12.625Z" fill="white"/>
</svg>
