<?xml version="1.0" encoding="UTF-8" standalone="no"?>
<svg
   xmlns:dc="http://purl.org/dc/elements/1.1/"
   xmlns:cc="http://creativecommons.org/ns#"
   xmlns:rdf="http://www.w3.org/1999/02/22-rdf-syntax-ns#"
   xmlns:svg="http://www.w3.org/2000/svg"
   xmlns="http://www.w3.org/2000/svg"
   xmlns:sodipodi="http://sodipodi.sourceforge.net/DTD/sodipodi-0.dtd"
   xmlns:inkscape="http://www.inkscape.org/namespaces/inkscape"
   width="273.01245"
   height="51.439369"
   viewBox="0 0 273.01245 51.439369"
   fill="none"
   version="1.1"
   id="svg70"
   sodipodi:docname="logo2.svg"
   inkscape:version="1.0.2 (e86c870879, 2021-01-15)">
  <metadata
     id="metadata76">
    <rdf:RDF>
      <cc:Work
         rdf:about="">
        <dc:format>image/svg+xml</dc:format>
        <dc:type
           rdf:resource="http://purl.org/dc/dcmitype/StillImage" />
        <dc:title></dc:title>
      </cc:Work>
    </rdf:RDF>
  </metadata>
  <defs
     id="defs74" />
  <sodipodi:namedview
     pagecolor="#ffffff"
     bordercolor="#666666"
     borderopacity="1"
     objecttolerance="10"
     gridtolerance="10"
     guidetolerance="10"
     inkscape:pageopacity="0"
     inkscape:pageshadow="2"
     inkscape:window-width="1920"
     inkscape:window-height="1016"
     id="namedview72"
     showgrid="false"
     fit-margin-top="0"
     fit-margin-left="0"
     fit-margin-right="0"
     fit-margin-bottom="0"
     inkscape:zoom="4.4905194"
     inkscape:cx="138.8162"
     inkscape:cy="25.180005"
     inkscape:window-x="0"
     inkscape:window-y="27"
     inkscape:window-maximized="1"
     inkscape:current-layer="svg70" />
  <path
     d="M 38.955903,9.4174674 V 42.873467 h -4.368 V 9.4174674 Z m 32.7885,9.6959996 c -0.928,-1.952 -2.272,-3.456 -4.032,-4.512 -1.76,-1.088 -3.808,-1.632 -6.144,-1.632 -2.336,0 -4.448,0.544 -6.336,1.632 -1.856,1.056 -3.328,2.592 -4.416,4.608 -1.056,1.984 -1.584,4.288 -1.584,6.912 0,2.624 0.528,4.928 1.584,6.912 1.088,1.984 2.56,3.52 4.416,4.608 1.888,1.056 4,1.584 6.336,1.584 3.264,0 5.952,-0.976 8.064,-2.928 2.112,-1.952 3.344,-4.592 3.696,-7.92 h -13.344 v -3.552 h 18 v 3.36 c -0.256,2.752 -1.12,5.28 -2.592,7.584 -1.472,2.272 -3.408,4.08 -5.808,5.424 -2.4,1.312 -5.072,1.968 -8.016,1.968 -3.104,0 -5.936,-0.72 -8.496,-2.16 -2.56,-1.472 -4.592,-3.504 -6.096,-6.096 -1.472,-2.592 -2.208,-5.52 -2.208,-8.784 0,-3.264 0.736,-6.192 2.208,-8.784 1.504,-2.624 3.536,-4.656 6.096,-6.096 2.56,-1.4719996 5.392,-2.2079996 8.496,-2.2079996 3.552,0 6.688,0.88 9.408,2.6399996 2.752,1.76 4.752,4.24 6,7.44 z M 111.4079,9.4174674 98.783803,42.873467 h -5.04 l -12.624,-33.4559996 h 4.656 L 96.287803,38.265467 106.7999,9.4174674 Z"
     fill="#f0f0f0"
     id="path62" />
  <path
     d="m 116.9169,43.113467 c -0.704,0 -1.296,-0.24 -1.776,-0.72 -0.448,-0.48 -0.672,-1.072 -0.672,-1.776 0,-0.704 0.224,-1.28 0.672,-1.728 0.48,-0.48 1.072,-0.72 1.776,-0.72 0.672,0 1.232,0.24 1.68,0.72 0.48,0.448 0.72,1.024 0.72,1.728 0,0.704 -0.24,1.296 -0.72,1.776 -0.448,0.48 -1.008,0.72 -1.68,0.72 z m 18.079,-33.7919996 c 3.712,0 6.896,0.672 9.552,2.0159996 2.656,1.344 4.688,3.28 6.096,5.808 1.408,2.528 2.112,5.536 2.112,9.024 0,3.456 -0.704,6.448 -2.112,8.976 -1.408,2.496 -3.44,4.416 -6.096,5.76 -2.656,1.312 -5.84,1.968 -9.552,1.968 h -9.936 V 9.3214674 Z m 0,30.7679996 c 4.672,0 8.224,-1.216 10.656,-3.648 2.464,-2.464 3.696,-5.888 3.696,-10.272 0,-4.416 -1.232,-7.856 -3.696,-10.32 -2.432,-2.496 -5.984,-3.744 -10.656,-3.744 h -6.576 v 27.984 z m 47.667,-11.664 c 0,1.152 -0.032,2.032 -0.096,2.64 h -21.744 c 0.096,1.984 0.576,3.68 1.44,5.088 0.864,1.408 2,2.48 3.408,3.216 1.408,0.704 2.944,1.056 4.608,1.056 2.176,0 4,-0.528 5.472,-1.584 1.504,-1.056 2.496,-2.48 2.976,-4.272 h 3.552 c -0.64,2.56 -2.016,4.656 -4.128,6.288 -2.08,1.6 -4.704,2.4 -7.872,2.4 -2.464,0 -4.672,-0.544 -6.624,-1.632 -1.952,-1.12 -3.488,-2.688 -4.608,-4.704 -1.088,-2.048 -1.632,-4.432 -1.632,-7.152 0,-2.72 0.544,-5.104 1.632,-7.152 1.088,-2.048 2.608,-3.616 4.56,-4.704 1.952,-1.088 4.176,-1.632 6.672,-1.632 2.496,0 4.672,0.544 6.528,1.632 1.888,1.088 3.328,2.56 4.32,4.416 1.024,1.824 1.536,3.856 1.536,6.096 z m -3.408,-0.096 c 0.032,-1.952 -0.368,-3.616 -1.2,-4.992 -0.8,-1.376 -1.904,-2.416 -3.312,-3.12 -1.408,-0.704 -2.944,-1.056 -4.608,-1.056 -2.496,0 -4.624,0.8 -6.384,2.4 -1.76,1.6 -2.736,3.856 -2.928,6.768 z m 18.867,11.28 8.832,-22.944 h 3.552 l -10.512,26.208 h -3.792 l -10.512,-26.208 h 3.6 z"
     fill="#20c2af"
     id="path64" />
  <path
     fill-rule="evenodd"
     clip-rule="evenodd"
     d="m 260.5609,25.885867 -12.745,13.6599 c -1.257,1.3477 -1.002,3.3142 0.569,4.3923 1.572,1.0781 3.865,0.8596 5.123,-0.488 l 16.411,-17.5891 -16.425,-17.3815996 c -1.268,-1.3409 -3.563,-1.5472 -5.126,-0.4607 -1.564,1.0865 -1.805,3.0542996 -0.538,4.3951996 z m -34.516,22.7203 14.578,-43.7485996 c 0.553,-1.6594 -0.568,-3.389 -2.504,-3.86309995 -1.935,-0.4741 -3.952,0.48679995 -4.505,2.14619995 l -14.578,43.7485996 c -0.553,1.6594 0.568,3.389 2.503,3.8631 1.935,0.4742 3.953,-0.4868 4.506,-2.1462 z"
     fill="#f0f0f0"
     id="path66" />
  <path
     d="m 21.994603,40.033867 c 1.2574,1.3477 1.0025,3.3141 -0.5692,4.3922 -1.5717,1.0782 -3.8652,0.8597 -5.1226,-0.488 L -0.10809723,26.348967 16.317103,8.9674674 c 1.2671,-1.3409 3.5621,-1.5472 5.126,-0.4607 1.5638,1.0865 1.8044,3.0542996 0.5373,4.3951996 l -12.7307702,13.472 z"
     fill="#f0f0f0"
     id="path68" />
  <rect
     style="fill:none;fill-rule:evenodd"
     id="rect105"
     width="273.01245"
     height="51.439369"
     x="0"
     y="0"
     ry="0" />
</svg>
