<?xml version="1.0" encoding="UTF-8" standalone="no"?>
<svg
   xmlns:dc="http://purl.org/dc/elements/1.1/"
   xmlns:cc="http://creativecommons.org/ns#"
   xmlns:rdf="http://www.w3.org/1999/02/22-rdf-syntax-ns#"
   xmlns:svg="http://www.w3.org/2000/svg"
   xmlns="http://www.w3.org/2000/svg"
   xmlns:sodipodi="http://sodipodi.sourceforge.net/DTD/sodipodi-0.dtd"
   xmlns:inkscape="http://www.inkscape.org/namespaces/inkscape"
   width="300.62738"
   height="57.320461"
   viewBox="0 0 300.62738 57.320461"
   fill="none"
   version="1.1"
   id="svg10"
   sodipodi:docname="logo_blog.svg"
   inkscape:version="1.0.2 (e86c870879, 2021-01-15)">
  <metadata
     id="metadata16">
    <rdf:RDF>
      <cc:Work
         rdf:about="">
        <dc:format>image/svg+xml</dc:format>
        <dc:type
           rdf:resource="http://purl.org/dc/dcmitype/StillImage" />
        <dc:title></dc:title>
      </cc:Work>
    </rdf:RDF>
  </metadata>
  <defs
     id="defs14" />
  <sodipodi:namedview
     pagecolor="#ffffff"
     bordercolor="#666666"
     borderopacity="1"
     objecttolerance="10"
     gridtolerance="10"
     guidetolerance="10"
     inkscape:pageopacity="0"
     inkscape:pageshadow="2"
     inkscape:window-width="1920"
     inkscape:window-height="1016"
     id="namedview12"
     showgrid="false"
     fit-margin-top="0"
     fit-margin-left="0"
     fit-margin-right="0"
     fit-margin-bottom="0"
     inkscape:zoom="4.71"
     inkscape:cx="150.32544"
     inkscape:cy="23.13081"
     inkscape:window-x="0"
     inkscape:window-y="27"
     inkscape:window-maximized="1"
     inkscape:current-layer="svg10" />
  <path
     d="m 48.389443,11.985603 v 32.247012 h -4.368 V 11.985603 Z m 32.7885,9.345619 c -0.928,-1.881462 -2.272,-3.331112 -4.032,-4.348952 -1.76,-1.048683 -3.808,-1.573025 -6.144,-1.573025 -2.336,0 -4.448,0.524342 -6.336,1.573025 -1.856,1.01784 -3.328,2.498334 -4.416,4.441483 -1.056,1.912304 -1.584,4.133046 -1.584,6.662223 0,2.529177 0.528,4.749919 1.584,6.662224 1.088,1.912304 2.56,3.392798 4.416,4.441482 1.888,1.01784 4,1.526759 6.336,1.526759 3.264,0 5.952,-0.94073 8.064,-2.822192 2.112,-1.881461 3.344,-4.42606 3.696,-7.633797 h -13.344 v -3.423643 h 18 v 3.238581 c -0.256,2.652552 -1.12,5.089198 -2.592,7.30994 -1.472,2.189897 -3.408,3.932562 -5.808,5.227994 -2.4,1.264589 -5.072,1.896884 -8.016,1.896884 -3.104,0 -5.936,-0.693982 -8.496,-2.081945 -2.56,-1.418807 -4.592,-3.377378 -6.096,-5.875711 -1.472,-2.498334 -2.208,-5.320526 -2.208,-8.466576 0,-3.14605 0.736,-5.968242 2.208,-8.466576 1.504,-2.529177 3.536,-4.487747 6.096,-5.875711 2.56,-1.418806 5.392,-2.12821 8.496,-2.12821 3.552,0 6.688,0.8482 9.408,2.544599 2.752,1.6964 4.752,4.086781 6,7.171144 z m 39.663497,-9.345619 -12.624,32.247012 h -5.04 L 90.553343,11.985603 h 4.656 l 10.512097,27.80553 10.512,-27.80553 z"
     fill="#f0f0f0"
     id="path2"
     style="stroke-width:0.981765" />
  <path
     d="m 126.35044,44.463942 c -0.704,0 -1.296,-0.231327 -1.776,-0.693982 -0.448,-0.462654 -0.672,-1.033261 -0.672,-1.711821 0,-0.67856 0.224,-1.233745 0.672,-1.665556 0.48,-0.462654 1.072,-0.693981 1.776,-0.693981 0.672,0 1.232,0.231327 1.68,0.693981 0.48,0.431811 0.72,0.986996 0.72,1.665556 0,0.67856 -0.24,1.249167 -0.72,1.711821 -0.448,0.462655 -1.008,0.693982 -1.68,0.693982 z m 23.839,-16.933151 c 1.888,0.33928 3.488,1.264588 4.8,2.775926 1.312,1.511338 1.968,3.269425 1.968,5.27426 0,1.634713 -0.432,3.115207 -1.296,4.441483 -0.832,1.295432 -2.064,2.328694 -3.696,3.099784 -1.632,0.740247 -3.584,1.110371 -5.856,1.110371 h -11.616 V 11.893072 h 11.28 c 3.392,0 5.968,0.755669 7.728,2.267006 1.792,1.511338 2.688,3.469908 2.688,5.875711 0,2.004836 -0.56,3.639548 -1.68,4.904137 -1.12,1.233745 -2.56,2.097367 -4.32,2.590865 z m -12.336,-1.341698 h 7.824 c 2.272,0 4.016,-0.50892 5.232,-1.52676 1.248,-1.048683 1.872,-2.482912 1.872,-4.302686 0,-1.78893 -0.624,-3.192315 -1.872,-4.210155 -1.216,-1.017839 -3.008,-1.526759 -5.376,-1.526759 h -7.68 z m 8.016,15.313861 c 2.432,0 4.32,-0.555185 5.664,-1.665556 1.376,-1.110371 2.064,-2.63713 2.064,-4.580279 0,-1.943148 -0.72,-3.48533 -2.16,-4.626544 -1.408,-1.172058 -3.312,-1.758086 -5.712,-1.758086 h -7.872 v 12.630465 z m 20.625,-31.5067654 V 44.232615 h -3.36 V 9.9961886 Z m 19.081,34.6065494 c -2.464,0 -4.688,-0.524341 -6.672,-1.573025 -1.952,-1.079527 -3.504,-2.590864 -4.656,-4.534013 -1.12,-1.973992 -1.68,-4.271842 -1.68,-6.89355 0,-2.621709 0.576,-4.904137 1.728,-6.847286 1.152,-1.973992 2.72,-3.48533 4.704,-4.534013 1.984,-1.079527 4.208,-1.61929 6.672,-1.61929 2.464,0 4.688,0.539763 6.672,1.61929 2.016,1.048683 3.584,2.560021 4.704,4.534013 1.152,1.943149 1.728,4.225577 1.728,6.847286 0,2.590864 -0.576,4.873293 -1.728,6.847285 -1.152,1.973992 -2.736,3.500751 -4.752,4.580278 -2.016,1.048684 -4.256,1.573025 -6.72,1.573025 z m 0,-2.822191 c 1.728,0 3.328,-0.370124 4.8,-1.110371 1.472,-0.771091 2.656,-1.912305 3.552,-3.423643 0.928,-1.542181 1.392,-3.423642 1.392,-5.644383 0,-2.220742 -0.448,-4.086781 -1.344,-5.598119 -0.896,-1.542181 -2.08,-2.683395 -3.552,-3.423642 -1.472,-0.771091 -3.072,-1.156636 -4.8,-1.156636 -1.728,0 -3.328,0.385545 -4.8,1.156636 -1.472,0.740247 -2.656,1.881461 -3.552,3.423642 -0.864,1.511338 -1.296,3.377377 -1.296,5.598119 0,2.220741 0.432,4.102202 1.296,5.644383 0.896,1.511338 2.064,2.652552 3.504,3.423643 1.472,0.740247 3.072,1.110371 4.8,1.110371 z m 30.316,-23.178986 c 2.464,0 4.608,0.555185 6.432,1.665556 1.824,1.11037 3.136,2.513755 3.936,4.210155 v -5.505588 h 3.36 v 25.908647 c 0,2.313272 -0.528,4.364373 -1.584,6.153304 -1.024,1.78893 -2.464,3.161471 -4.32,4.117624 -1.856,0.986996 -3.968,1.480494 -6.336,1.480494 -3.36,0 -6.16,-0.771091 -8.4,-2.313272 -2.208,-1.542181 -3.584,-3.639548 -4.128,-6.2921 h 3.312 c 0.576,1.758087 1.664,3.161472 3.264,4.210155 1.632,1.048683 3.616,1.573025 5.952,1.573025 1.696,0 3.216,-0.354702 4.56,-1.064105 1.344,-0.67856 2.4,-1.6964 3.168,-3.053519 0.768,-1.35712 1.152,-2.960988 1.152,-4.811606 v -6.245834 c -0.832,1.727243 -2.16,3.161471 -3.984,4.302686 -1.792,1.11037 -3.92,1.665555 -6.384,1.665555 -2.4,0 -4.56,-0.539763 -6.48,-1.61929 -1.888,-1.079527 -3.376,-2.606287 -4.464,-4.580279 -1.056,-1.973992 -1.584,-4.25642 -1.584,-6.847285 0,-2.590865 0.528,-4.857871 1.584,-6.80102 1.088,-1.973992 2.576,-3.48533 4.464,-4.534013 1.92,-1.079527 4.08,-1.61929 6.48,-1.61929 z m 10.368,13.000589 c 0,-2.03568 -0.432,-3.82461 -1.296,-5.366792 -0.864,-1.542181 -2.048,-2.729661 -3.552,-3.562439 -1.472,-0.832777 -3.104,-1.249166 -4.896,-1.249166 -1.856,0 -3.52,0.400967 -4.992,1.202901 -1.472,0.801934 -2.64,1.973992 -3.504,3.516174 -0.832,1.511337 -1.248,3.315689 -1.248,5.413056 0,2.066523 0.416,3.886297 1.248,5.459322 0.864,1.542181 2.032,2.729661 3.504,3.562439 1.472,0.801934 3.136,1.202902 4.992,1.202902 1.792,0 3.424,-0.416389 4.896,-1.249167 1.504,-0.832778 2.688,-2.020258 3.552,-3.562439 0.864,-1.542182 1.296,-3.331112 1.296,-5.366791 z"
     fill="#5e20c2"
     id="path4"
     style="stroke-width:0.981765" />
  <path
     fill-rule="evenodd"
     clip-rule="evenodd"
     d="m 289.08044,29.786617 -14.118,13.166276 c -1.393,1.298999 -1.111,3.19434 0.63,4.233481 1.741,1.039238 4.282,0.828633 5.674,-0.470365 l 18.18,-16.953489 -18.195,-16.753391 c -1.404,-1.292444 -3.946,-1.491289 -5.679,-0.444052 -1.732,1.047238 -1.998,2.943928 -0.595,4.236372 z m -38.236,21.899264 16.149,-42.1676724 c 0.612,-1.599435 -0.629,-3.266533 -2.773,-3.723501 -2.144,-0.456967 -4.378,0.469113 -4.991,2.068644 l -16.148,42.1675764 c -0.613,1.599531 0.628,3.266629 2.772,3.723597 2.144,0.456967 4.379,-0.469209 4.991,-2.068644 z"
     fill="#f0f0f0"
     id="path6"
     style="stroke-width:0.981765" />
  <path
     d="m 24.809543,43.423355 c 1.3929,1.298902 1.1106,3.19434 -0.6305,4.233481 -1.7411,1.039141 -4.2816,0.828537 -5.6745,-0.470366 L 0.32544309,30.232982 18.520343,13.479591 c 1.4036,-1.292541 3.9459,-1.49129 5.6783,-0.444052 1.7323,1.047141 1.9988,2.943831 0.5952,4.236372 l -14.1024,12.985167 z"
     fill="#f0f0f0"
     id="path8"
     style="stroke-width:0.981765" />
  <rect
     style="fill:none"
     id="rect18"
     width="300.62738"
     height="57.320461"
     x="0"
     y="0" />
</svg>
