<svg width="50" height="42" viewBox="0 0 50 42" fill="none" xmlns="http://www.w3.org/2000/svg">
<path d="M34.2188 0.46875C28.2383 0.46875 23.375 5.33203 23.375 11.3125C23.375 11.6719 23.4648 12.0234 23.5 12.375C16.1055 11.668 9.56641 8.10547 5.125 2.65625C4.91797 2.39453 4.59766 2.25391 4.26172 2.27734C3.92969 2.30078 3.63282 2.49219 3.46875 2.78125C2.53516 4.38672 2 6.23438 2 8.21875C2 10.6211 2.85938 12.8203 4.1875 14.625C3.92969 14.5117 3.64844 14.4492 3.40625 14.3125C3.09766 14.1484 2.72657 14.1562 2.42578 14.3359C2.125 14.5156 1.94141 14.8398 1.9375 15.1875V15.3125C1.9375 18.9961 3.84375 22.1953 6.65625 24.1562C6.625 24.1523 6.59375 24.1641 6.5625 24.1562C6.21875 24.0977 5.8711 24.2188 5.64063 24.4805C5.41016 24.7422 5.33594 25.1055 5.4375 25.4375C6.55469 28.9102 9.40625 31.5625 12.9375 32.5312C10.125 34.2031 6.86328 35.1875 3.34375 35.1875C2.58203 35.1875 1.85157 35.1484 1.125 35.0625C0.656252 35 0.207033 35.2734 0.0507836 35.7188C-0.109373 36.1641 0.0664086 36.6602 0.468752 36.9062C4.98047 39.8008 10.3359 41.5 16.0938 41.5C25.4258 41.5 32.7461 37.6016 37.6562 32.0312C42.5664 26.4609 45.125 19.2266 45.125 12.4688C45.125 12.1836 45.1016 11.9062 45.0938 11.625C46.9258 10.2227 48.5625 8.57812 49.8438 6.65625C50.0977 6.28516 50.0703 5.78906 49.7773 5.44531C49.4883 5.10156 49 4.99609 48.5938 5.1875C48.0781 5.41797 47.4766 5.44141 46.9375 5.625C47.6484 4.67578 48.2578 3.65234 48.625 2.5C48.75 2.10547 48.6133 1.67188 48.2891 1.41406C47.9648 1.16016 47.5117 1.12891 47.1562 1.34375C45.4492 2.35547 43.5586 3.06641 41.5625 3.5C39.625 1.6875 37.0742 0.46875 34.2188 0.46875ZM34.2188 2.46875C36.7695 2.46875 39.0742 3.55859 40.6875 5.28125C40.9297 5.53125 41.2852 5.63672 41.625 5.5625C42.9297 5.30469 44.168 4.92578 45.375 4.4375C44.6797 5.375 43.8203 6.17578 42.8125 6.78125C42.3555 7.00391 42.1406 7.53125 42.3086 8.01172C42.4727 8.48828 42.9727 8.76562 43.4688 8.65625C44.4688 8.53516 45.3594 8.12891 46.3125 7.875C45.457 8.80078 44.5195 9.63672 43.5 10.375C43.2227 10.5781 43.0703 10.9062 43.0938 11.25C43.1094 11.6562 43.125 12.0586 43.125 12.4688C43.125 18.7188 40.7266 25.5039 36.1562 30.6875C31.5859 35.8711 24.875 39.5 16.0938 39.5C12.1055 39.5 8.33985 38.6172 4.9375 37.0625C9.15625 36.7383 13.0469 35.2461 16.1875 32.7812C16.5156 32.5195 16.6445 32.082 16.5117 31.6836C16.3789 31.2852 16.0117 31.0117 15.5938 31C12.2969 30.9414 9.53516 29.0234 8.0625 26.3125C8.11719 26.3125 8.16406 26.3125 8.21875 26.3125C9.20703 26.3125 10.1836 26.1875 11.0938 25.9375C11.5313 25.8086 11.832 25.4023 11.8164 24.9453C11.8008 24.4883 11.4766 24.0977 11.0313 24C7.47266 23.2812 4.80469 20.3828 4.1875 16.7812C5.19531 17.1289 6.22656 17.4023 7.34375 17.4375C7.80078 17.4648 8.21484 17.1797 8.35547 16.7461C8.49609 16.3125 8.32422 15.8359 7.9375 15.5938C5.5625 14.0039 4 11.2969 4 8.21875C4 7.07812 4.29688 6.03125 4.6875 5.03125C9.6875 10.5195 16.6875 14.1641 24.5938 14.5625C24.9062 14.5781 25.2109 14.4492 25.4141 14.2109C25.6172 13.9687 25.6953 13.6484 25.625 13.3438C25.4727 12.6953 25.375 12.0078 25.375 11.3125C25.375 6.41406 29.3203 2.46875 34.2188 2.46875Z" fill="white"/>
</svg>
